<svg xmlns="http://www.w3.org/2000/svg" width="1688" height="1148" viewBox="-4 -4 1688 1148" role="img" aria-label="Diagram"><style>.diagram-zone&gt;rect{fill:#eef2f6;fill-opacity:.8;stroke:var(--zone-border,#94a3b8);stroke-width:1;stroke-dasharray:3 3}.diagram-zone&gt;.zone-header{fill:#e2e8f0;fill-opacity:.7;stroke:none}.zone-title&gt;.zone-label-backing{fill:#e2e8f0;fill-opacity:.72;stroke:none}.zone-label{fill:#475569;font:12px system-ui,sans-serif}.diagram-node&gt;.node-shape{fill:#fff;stroke:var(--diagram-ink,#64748b);stroke-width:1.3}.diagram-node text{fill:#1e293b;font:13px system-ui,sans-serif}.edge-line{fill:none;stroke:var(--diagram-ink,#64748b);stroke-width:1.5;stroke-linejoin:round;stroke-linecap:round}.edge-label rect{fill:var(--label-fill,#fff);stroke:var(--label-border,#e2e8f0);stroke-width:.7}.edge-label text{fill:var(--label-text,#475569);font:11px system-ui,sans-serif}.node-container-title text{font-family:system-ui,sans-serif}</style><rect x="-4" y="-4" width="1688" height="1148" fill="#fff"/><g id="diagram-scene" data-theme="blueprint" style="--diagram-ink:#4c6681;--zone-border:#859db6;--label-border:#ccd9e7;--label-fill:#f8fbff;--label-text:#304c68"><defs><marker id="arrowhead" viewBox="0 0 10 10" refX="10" refY="5" markerWidth="10" markerHeight="10" markerUnits="userSpaceOnUse" orient="auto-start-reverse"><path d="M0,0 L10,5 L0,10 Z" fill="#4c6681"/></marker></defs><g><g class="diagram-zone" data-object-id="DiagramStudio" data-kind="zone" aria-label="Zone: Southartica · Diagram Studio"><rect x="20" y="20" width="1640" height="1100" rx="4" style="fill:#e0ebf7"/><rect class="zone-header" x="20" y="20" width="1640" height="34" rx="4" data-zone-header="DiagramStudio" style="fill:#ccd6e1"/></g><g class="diagram-zone" data-object-id="Interfaces" data-kind="zone" aria-label="Zone: 01 · Define &amp; edit"><rect x="60" y="110" width="370" height="584" rx="4" style="fill:#d4dee9"/><rect class="zone-header" x="60" y="110" width="370" height="34" rx="4" data-zone-header="Interfaces" style="fill:#c1cad4"/></g><g class="diagram-zone" data-object-id="State" data-kind="zone" aria-label="Zone: 02 · Diagram state"><rect x="460" y="110" width="370" height="584" rx="4" style="fill:#d4dee9"/><rect class="zone-header" x="460" y="110" width="370" height="34" rx="4" data-zone-header="State" style="fill:#c1cad4"/></g><g class="diagram-zone" data-object-id="Rendering" data-kind="zone" aria-label="Zone: 03 · Route &amp; render"><rect x="860" y="110" width="370" height="584" rx="4" style="fill:#d4dee9"/><rect class="zone-header" x="860" y="110" width="370" height="34" rx="4" data-zone-header="Rendering" style="fill:#c1cad4"/></g><g class="diagram-zone" data-object-id="Artifacts" data-kind="zone" aria-label="Zone: 04 · Preview &amp; files"><rect x="1260" y="110" width="370" height="724" rx="4" style="fill:#d4dee9"/><rect class="zone-header" x="1260" y="110" width="370" height="34" rx="4" data-zone-header="Artifacts" style="fill:#c1cad4"/></g><g class="diagram-zone" data-object-id="Engines" data-kind="zone" aria-label="Zone: Bundled engines · unmodified"><rect x="60" y="900" width="770" height="190" rx="4" style="fill:#d4dee9"/><rect class="zone-header" x="60" y="900" width="770" height="34" rx="4" data-zone-header="Engines" style="fill:#c1cad4"/></g><g class="diagram-zone" data-object-id="Knowledge" data-kind="zone" aria-label="Zone: Design &amp; verification"><rect x="860" y="900" width="770" height="190" rx="4" style="fill:#d4dee9"/><rect class="zone-header" x="860" y="900" width="770" height="34" rx="4" data-zone-header="Knowledge" style="fill:#c1cad4"/></g></g><g><g class="diagram-edge" data-object-id="Define" data-kind="edge" aria-label="Connection Definition to Importer"><path class="edge-line" d="M245,272 L245,350" data-edge-id="Define" data-bridge-count="0" marker-end="url(#arrowhead)"/></g><g class="diagram-edge" data-object-id="ImportModel" data-kind="edge" aria-label="Connection Importer to Model: seed / apply"><path class="edge-line" d="M410,406 L444.99999999999994,406 L444.99999999999994,220 L480,220" data-edge-id="ImportModel" data-bridge-count="0" marker-end="url(#arrowhead)"/></g><g class="diagram-edge" data-object-id="Commands" data-kind="edge" aria-label="Connection Controls to Controller"><path class="edge-line" d="M410,596 L480,596" data-edge-id="Commands" data-bridge-count="0" marker-end="url(#arrowhead)"/></g><g class="diagram-edge" data-object-id="Edit" data-kind="edge" aria-label="Connection Controller to Transactions"><path class="edge-line" d="M645,540 L645,462" data-edge-id="Edit" data-bridge-count="0" marker-end="url(#arrowhead)"/></g><g class="diagram-edge" data-object-id="Commit" data-kind="edge" aria-label="Connection Transactions to Model: validate / commit"><path class="edge-line" d="M645,350 L645,280" data-edge-id="Commit" data-bridge-count="0" marker-end="url(#arrowhead)"/></g><g class="diagram-edge" data-object-id="Route" data-kind="edge" aria-label="Connection Model to Router"><path class="edge-line" d="M810,220 L880,220" data-edge-id="Route" data-bridge-count="0" marker-end="url(#arrowhead)"/></g><g class="diagram-edge" data-object-id="Label" data-kind="edge" aria-label="Connection Router to Labels"><path class="edge-line" d="M1045,280 L1045,350" data-edge-id="Label" data-bridge-count="0" marker-end="url(#arrowhead)"/></g><g class="diagram-edge" data-object-id="Draw" data-kind="edge" aria-label="Connection Labels to Scene"><path class="edge-line" d="M1045,462 L1045,540" data-edge-id="Draw" data-bridge-count="0" marker-end="url(#arrowhead)"/></g><g class="diagram-edge" data-object-id="Preview" data-kind="edge" aria-label="Connection Scene to Canvas"><path class="edge-line" d="M1210,590 L1245,590 L1245,589.9999423184238 L1280,589.9999423184238" data-edge-id="Preview" data-bridge-count="0" marker-end="url(#arrowhead)"/></g><g class="diagram-edge" data-object-id="ExportImage" data-kind="edge" aria-label="Connection Scene to Images"><path class="edge-line" d="M1210,602 L1244.7999443305919,602 L1244.7999443305919,736 L1280,736" data-edge-id="ExportImage" data-bridge-count="0" marker-end="url(#arrowhead)"/></g><g class="diagram-edge" data-object-id="SaveOpen" data-kind="edge" aria-label="Connection Model to ProjectFile: save / open"><path class="edge-line" d="M810,208 L843.9999554532789,208 L843.9999554532789,89.99999262212394 L1647.9999226440877,89.99999262212394 L1647.9999226440877,220 L1610,220" data-edge-id="SaveOpen" data-bridge-count="0" marker-end="url(#arrowhead)" marker-start="url(#arrowhead)"/></g><g class="diagram-edge" data-object-id="ExportSource" data-kind="edge" aria-label="Connection Model to MermaidFile: structure"><path class="edge-bridge-halo" d="M1040,299.9999825613839 C1040,293.3499825613839 1050,293.3499825613839 1050,299.9999825613839" fill="none" stroke="#fff" stroke-width="4.5" pointer-events="none"/><path class="edge-line" d="M810,232 L839.9999554253324,232 L839.9999554253324,299.9999825613839 L1040,299.9999825613839 C1040,293.3499825613839 1050,293.3499825613839 1050,299.9999825613839 L1247.9999505905878,299.9999825613839 L1247.9999505905878,406 L1280,406" data-edge-id="ExportSource" data-bridge-count="1" marker-end="url(#arrowhead)"/></g><g class="diagram-edge" data-object-id="LayoutEngine" data-kind="edge" aria-label="Connection Importer to MermaidELK: delegate"><path class="edge-bridge-halo" d="M439.99996713491583,591 C446.6499671349158,591 446.6499671349158,601 439.99996713491583,601" fill="none" stroke="#fff" stroke-width="4.5" pointer-events="none"/><path class="edge-line" d="M245,462 L245,501 L439.99996713491583,501 L439.99996713491583,591 C446.6499671349158,591 446.6499671349158,601 439.99996713491583,601 L439.99996713491583,724.9999367291238 L244.99999843499597,724.9999367291238 L245,724.9999367291238 L245,950" data-edge-id="LayoutEngine" data-bridge-count="1" marker-end="url(#arrowhead)" stroke-dasharray="6 5"/></g><g class="diagram-edge" data-object-id="RouteEngine" data-kind="edge" aria-label="Connection Router to Avoid: delegate"><path class="edge-bridge-halo" d="M1235.9999342698318,294.9999825613839 C1242.6499342698319,294.9999825613839 1242.6499342698319,304.9999825613839 1235.9999342698318,304.9999825613839" fill="none" stroke="#fff" stroke-width="4.5" pointer-events="none"/><path class="edge-bridge-halo" d="M1235.9999342698318,585 C1242.6499342698319,585 1242.6499342698319,595 1235.9999342698318,595" fill="none" stroke="#fff" stroke-width="4.5" pointer-events="none"/><path class="edge-bridge-halo" d="M1235.9999342698318,597 C1242.6499342698319,597 1242.6499342698319,607 1235.9999342698318,607" fill="none" stroke="#fff" stroke-width="4.5" pointer-events="none"/><path class="edge-line" d="M1210,220 L1235.9999342698318,220 L1235.9999342698318,294.9999825613839 C1242.6499342698319,294.9999825613839 1242.6499342698319,304.9999825613839 1235.9999342698318,304.9999825613839 L1235.9999342698318,585 C1242.6499342698319,585 1242.6499342698319,595 1235.9999342698318,595 L1235.9999342698318,597 C1242.6499342698319,597 1242.6499342698319,607 1235.9999342698318,607 L1235.9999342698318,854.9999568506039 L644.9999704884958,854.9999568506039 L645,854.9999568506039 L645,950" data-edge-id="RouteEngine" data-bridge-count="3" marker-end="url(#arrowhead)" stroke-dasharray="6 5"/></g><g class="diagram-edge" data-object-id="Guide" data-kind="edge" aria-label="Connection Specs to Transactions"><path class="edge-bridge-halo" d="M839.9999391884157,859.9999568506039 C833.3499391884158,859.9999568506039 833.3499391884158,849.9999568506039 839.9999391884157,849.9999568506039" fill="none" stroke="#fff" stroke-width="4.5" pointer-events="none"/><path class="edge-line" d="M1045,950 L1045,865.9999396355598 L839.9999391884157,865.9999396355598 L839.9999391884157,859.9999568506039 C833.3499391884158,859.9999568506039 833.3499391884158,849.9999568506039 839.9999391884157,849.9999568506039 L839.9999391884157,405.9999748481499 L839.9999391884157,406 L810,406" data-edge-id="Guide" data-bridge-count="1"/></g><g class="diagram-edge" data-object-id="Verify" data-kind="edge" aria-label="Connection Checks to Scene"><path class="edge-bridge-halo" d="M1251.999944330572,741 C1245.3499443305718,741 1245.3499443305718,731 1251.999944330572,731" fill="none" stroke="#fff" stroke-width="4.5" pointer-events="none"/><path class="edge-bridge-halo" d="M1249.5999443305786,704.9999378469837 C1249.5999443305786,711.383937846966 1239.999944330605,711.383937846966 1239.999944330605,704.9999378469837" fill="none" stroke="#fff" stroke-width="4.5" pointer-events="none"/><path class="edge-line" d="M1445,950 L1445,879.9999602041838 L1251.999944330572,879.9999602041838 L1251.999944330572,741 C1245.3499443305718,741 1245.3499443305718,731 1251.999944330572,731 L1251.999944330572,704.9999378469837 L1249.5999443305786,704.9999378469837 C1249.5999443305786,711.383937846966 1239.999944330605,711.383937846966 1239.999944330605,704.9999378469837 L1044.9999832321,704.9999378469837 L1045,704.9999378469837 L1045,652" data-edge-id="Verify" data-bridge-count="2"/></g></g><g><g class="edge-label" data-object-id="ImportModel" data-kind="edge" transform="translate(444.99999999999994,313)"><rect x="-58.056678771972656" y="-15.5" width="116.11335754394531" height="31" rx="3"/><text text-anchor="middle" style="font-size:18px"><tspan x="0" y="6.3">seed / apply</tspan></text></g><g class="edge-label" data-object-id="Commit" data-kind="edge" transform="translate(645,315)"><rect x="-80.3675308227539" y="-15.5" width="160.7350616455078" height="31" rx="3"/><text text-anchor="middle" style="font-size:18px"><tspan x="0" y="6.3">validate / commit</tspan></text></g></g><g class="zone-titles"><g class="zone-title" data-object-id="DiagramStudio" data-kind="zone" data-zone-header="DiagramStudio"><rect class="zone-label-backing" x="712.5727462768555" y="25" width="254.85450744628906" height="26" rx="3" style="fill:#ccd6e1"/><text class="zone-label" x="840" y="44.3" text-anchor="middle" style="fill:#304c68;font-size:18px">Southartica · Diagram Studio</text></g><g class="zone-title" data-object-id="Interfaces" data-kind="zone" data-zone-header="Interfaces"><rect class="zone-label-backing" x="166.46044921875" y="115" width="157.0791015625" height="26" rx="3" style="fill:#c1cad4"/><text class="zone-label" x="245" y="134.3" text-anchor="middle" style="fill:#304c68;font-size:18px">01 · Define &amp; edit</text></g><g class="zone-title" data-object-id="State" data-kind="zone" data-zone-header="State"><rect class="zone-label-backing" x="561.8614883422852" y="115" width="166.2770233154297" height="26" rx="3" style="fill:#c1cad4"/><text class="zone-label" x="645" y="134.3" text-anchor="middle" style="fill:#304c68;font-size:18px">02 · Diagram state</text></g><g class="zone-title" data-object-id="Rendering" data-kind="zone" data-zone-header="Rendering"><rect class="zone-label-backing" x="956.911506652832" y="115" width="176.17698669433594" height="26" rx="3" style="fill:#c1cad4"/><text class="zone-label" x="1045" y="134.3" text-anchor="middle" style="fill:#304c68;font-size:18px">03 · Route &amp; render</text></g><g class="zone-title" data-object-id="Artifacts" data-kind="zone" data-zone-header="Artifacts"><rect class="zone-label-backing" x="1360.475486755371" y="115" width="169.0490264892578" height="26" rx="3" style="fill:#c1cad4"/><text class="zone-label" x="1445" y="134.3" text-anchor="middle" style="fill:#304c68;font-size:18px">04 · Preview &amp; files</text></g><g class="zone-title" data-object-id="Engines" data-kind="zone" data-zone-header="Engines"><rect class="zone-label-backing" x="311.8127899169922" y="905" width="266.3744201660156" height="26" rx="3" style="fill:#c1cad4"/><text class="zone-label" x="445" y="924.3" text-anchor="middle" style="fill:#304c68;font-size:18px">Bundled engines · unmodified</text></g><g class="zone-title" data-object-id="Knowledge" data-kind="zone" data-zone-header="Knowledge"><rect class="zone-label-backing" x="1151.304542541504" y="905" width="187.3909149169922" height="26" rx="3" style="fill:#c1cad4"/><text class="zone-label" x="1245" y="924.3" text-anchor="middle" style="fill:#304c68;font-size:18px">Design &amp; verification</text></g></g><g><g class="diagram-node" data-object-id="Definition" data-kind="node" transform="translate(80,160)" aria-label="Mermaid definition&#10;Flowchart / graph"><rect class="node-shape" width="330" height="112" rx="3" style="fill:#f8fbff"/><text text-anchor="middle" style="fill:#23374d;font-size:18px"><tspan x="165" y="49.8">Mermaid definition</tspan><tspan x="165" y="74.8">Flowchart / graph</tspan></text></g><g class="diagram-node" data-object-id="Importer" data-kind="node" transform="translate(80,350)" aria-label="Import &amp; auto layout&#10;mermaid-adapter.mjs"><rect class="node-shape" width="330" height="112" rx="14" style="fill:#f8fbff"/><text text-anchor="middle" style="fill:#23374d;font-size:18px"><tspan x="165" y="49.8">Import &amp; auto layout</tspan><tspan x="165" y="74.8">mermaid-adapter.mjs</tspan></text></g><g class="diagram-node" data-object-id="Controls" data-kind="node" transform="translate(80,540)" aria-label="Toolbar, menus &amp; inspector&#10;viewer.html · controls.mjs"><rect class="node-shape" width="330" height="112" rx="3" style="fill:#f8fbff"/><text text-anchor="middle" style="fill:#23374d;font-size:18px"><tspan x="165" y="49.8">Toolbar, menus &amp; inspector</tspan><tspan x="165" y="74.8">viewer.html · controls.mjs</tspan></text></g><g class="diagram-node" data-object-id="Model" data-kind="node" transform="translate(480,160)" aria-label="Authoritative model&#10;core.mjs"><path class="node-shape" d="M0,10 A165,10 0 0 1 330,10 L330,110 A165,10 0 0 1 0,110 Z" style="fill:#f8fbff"/><ellipse class="node-shape" cx="165" cy="10" rx="165" ry="10" style="fill:#f8fbff"/><text text-anchor="middle" style="fill:#23374d;font-size:18px"><tspan x="165" y="53.8">Authoritative model</tspan><tspan x="165" y="78.8">core.mjs</tspan></text></g><g class="diagram-node" data-object-id="Transactions" data-kind="node" transform="translate(480,350)" aria-label="Safe edit transactions&#10;Geometry · Undo / Redo"><rect class="node-shape" width="330" height="112" rx="3" style="fill:#f8fbff"/><text text-anchor="middle" style="fill:#23374d;font-size:18px"><tspan x="165" y="49.8">Safe edit transactions</tspan><tspan x="165" y="74.8">Geometry · Undo / Redo</tspan></text></g><g class="diagram-node" data-object-id="Controller" data-kind="node" transform="translate(480,540)" aria-label="Application controller&#10;app.mjs"><rect class="node-shape" width="330" height="112" rx="14" style="fill:#f8fbff"/><text text-anchor="middle" style="fill:#23374d;font-size:18px"><tspan x="165" y="49.8">Application controller</tspan><tspan x="165" y="74.8">app.mjs</tspan></text></g><g class="diagram-node" data-object-id="Router" data-kind="node" transform="translate(880,160)" aria-label="Connection routing&#10;routing.mjs + refinements"><rect class="node-shape" width="330" height="120" rx="14" style="fill:#f8fbff"/><text text-anchor="middle" style="fill:#23374d;font-size:18px"><tspan x="165" y="53.8">Connection routing</tspan><tspan x="165" y="78.8">routing.mjs + refinements</tspan></text></g><g class="diagram-node" data-object-id="Labels" data-kind="node" transform="translate(880,350)" aria-label="Labels, leaders &amp; crossings&#10;labels.mjs · bridges.mjs"><rect class="node-shape" width="330" height="112" rx="3" style="fill:#f8fbff"/><text text-anchor="middle" style="fill:#23374d;font-size:18px"><tspan x="165" y="49.8">Labels, leaders &amp; crossings</tspan><tspan x="165" y="74.8">labels.mjs · bridges.mjs</tspan></text></g><g class="diagram-node" data-object-id="Scene" data-kind="node" transform="translate(880,540)" aria-label="SVG scene &amp; themes&#10;scene.mjs · themes.mjs"><rect class="node-shape" width="330" height="112" rx="3" style="fill:#f8fbff"/><text text-anchor="middle" style="fill:#23374d;font-size:18px"><tspan x="165" y="49.8">SVG scene &amp; themes</tspan><tspan x="165" y="74.8">scene.mjs · themes.mjs</tspan></text></g><g class="diagram-node" data-object-id="ProjectFile" data-kind="node" transform="translate(1280,160)" aria-label="Editable project JSON&#10;Layout · theme · context"><path class="node-shape" d="M0,10 A165,10 0 0 1 330,10 L330,110 A165,10 0 0 1 0,110 Z" style="fill:#f8fbff"/><ellipse class="node-shape" cx="165" cy="10" rx="165" ry="10" style="fill:#f8fbff"/><text text-anchor="middle" style="fill:#23374d;font-size:18px"><tspan x="165" y="53.8">Editable project JSON</tspan><tspan x="165" y="78.8">Layout · theme · context</tspan></text></g><g class="diagram-node" data-object-id="MermaidFile" data-kind="node" transform="translate(1280,350)" aria-label="Mermaid export&#10;Supported structure"><rect class="node-shape" width="330" height="112" rx="3" style="fill:#f8fbff"/><text text-anchor="middle" style="fill:#23374d;font-size:18px"><tspan x="165" y="49.8">Mermaid export</tspan><tspan x="165" y="74.8">Supported structure</tspan></text></g><g class="diagram-node" data-object-id="Canvas" data-kind="node" transform="translate(1280,533.9999423184238)" aria-label="Interactive SVG canvas&#10;Selection · drag · resize"><rect class="node-shape" width="330" height="112" rx="3" style="fill:#f8fbff"/><text text-anchor="middle" style="fill:#23374d;font-size:18px"><tspan x="165" y="49.8">Interactive SVG canvas</tspan><tspan x="165" y="74.8">Selection · drag · resize</tspan></text></g><g class="diagram-node" data-object-id="Images" data-kind="node" transform="translate(1280,680)" aria-label="SVG / PNG export&#10;Rendered appearance"><rect class="node-shape" width="330" height="112" rx="3" style="fill:#f8fbff"/><text text-anchor="middle" style="fill:#23374d;font-size:18px"><tspan x="165" y="49.8">SVG / PNG export</tspan><tspan x="165" y="74.8">Rendered appearance</tspan></text></g><g class="diagram-node" data-object-id="MermaidELK" data-kind="node" transform="translate(80,950)" aria-label="Mermaid 12.0.0 + ELK&#10;Parse &amp; auto layout"><rect class="node-shape" width="330" height="112" rx="3" style="fill:#f8fbff"/><text text-anchor="middle" style="fill:#23374d;font-size:18px"><tspan x="165" y="49.8">Mermaid 12.0.0 + ELK</tspan><tspan x="165" y="74.8">Parse &amp; auto layout</tspan></text></g><g class="diagram-node" data-object-id="Avoid" data-kind="node" transform="translate(480,950)" aria-label="libavoid-js + WebAssembly&#10;Find obstacle avoiding paths"><rect class="node-shape" width="330" height="112" rx="3" style="fill:#f8fbff"/><text text-anchor="middle" style="fill:#23374d;font-size:18px"><tspan x="165" y="49.8">libavoid-js + WebAssembly</tspan><tspan x="165" y="74.8">Find obstacle avoiding paths</tspan></text></g><g class="diagram-node" data-object-id="Specs" data-kind="node" transform="translate(880,950)" aria-label="Requirements &amp; design notes&#10;README · SPEC · UI spec"><rect class="node-shape" width="330" height="112" rx="3" style="fill:#f8fbff"/><text text-anchor="middle" style="fill:#23374d;font-size:18px"><tspan x="165" y="49.8">Requirements &amp; design notes</tspan><tspan x="165" y="74.8">README · SPEC · UI spec</tspan></text></g><g class="diagram-node" data-object-id="Checks" data-kind="node" transform="translate(1280,950)" aria-label="Regression verification&#10;Unit · browser · native touch"><rect class="node-shape" width="330" height="112" rx="3" style="fill:#f8fbff"/><text text-anchor="middle" style="fill:#23374d;font-size:18px"><tspan x="165" y="49.8">Regression verification</tspan><tspan x="165" y="74.8">Unit · browser · native touch</tspan></text></g></g><g class="manual-labels"><g class="edge-label manual-label" data-object-id="SaveOpen" data-kind="edge" transform="translate(1389.9999093136075,89.9999311398237)"><rect x="-55.65369415283203" y="-15.5" width="111.30738830566406" height="31" rx="3"/><text text-anchor="middle" style="font-size:18px"><tspan x="0" y="6.3">save / open</tspan></text></g><g class="edge-label manual-label" data-object-id="ExportSource" data-kind="edge" transform="translate(900.0000423040144,300.00001330253406)"><rect x="-45.582763671875" y="-15.5" width="91.16552734375" height="31" rx="3"/><text text-anchor="middle" style="font-size:18px"><tspan x="0" y="6.3">structure</tspan></text></g><g class="edge-label manual-label" data-object-id="LayoutEngine" data-kind="edge" transform="translate(245,811.9999998882142)"><rect x="-43.917755126953125" y="-15.5" width="87.83551025390625" height="31" rx="3"/><text text-anchor="middle" style="font-size:18px"><tspan x="0" y="6.3">delegate</tspan></text></g><g class="edge-label manual-label" data-object-id="RouteEngine" data-kind="edge" transform="translate(760.0000615940863,855.0000183329041)"><rect x="-43.917755126953125" y="-15.5" width="87.83551025390625" height="31" rx="3"/><text text-anchor="middle" style="font-size:18px"><tspan x="0" y="6.3">delegate</tspan></text></g></g></g></svg>