<svg xmlns="http://www.w3.org/2000/svg" width="629.39404296875" height="403" viewBox="31 54 629.39404296875 403" role="img" aria-label="Diagram"><style>.diagram-zone&gt;rect{fill:#eef2f6;fill-opacity:.8;stroke:#94a3b8;stroke-width:1;stroke-dasharray:3 3}.diagram-zone&gt;.zone-header{fill:#e2e8f0;fill-opacity:.7;stroke:none}.zone-title&gt;.zone-label-backing{fill:#e2e8f0;fill-opacity:.72;stroke:none}.zone-label{fill:#475569;font:12px system-ui,sans-serif}.diagram-node&gt;.node-shape{fill:#fff;stroke:#64748b;stroke-width:1.3}.diagram-node text{fill:#1e293b;font:13px system-ui,sans-serif}.edge-line{fill:none;stroke:#64748b;stroke-width:1.5;stroke-linejoin:round;stroke-linecap:round}.edge-label rect{fill:#fff;stroke:#e2e8f0;stroke-width:.7}.edge-label text{fill:#475569;font:11px system-ui,sans-serif}</style><rect x="31" y="54" width="629.39404296875" height="403" fill="#fff"/><g id="diagram-scene"><defs><marker id="arrowhead" viewBox="0 0 10 10" refX="10" refY="5" markerWidth="10" markerHeight="10" markerUnits="userSpaceOnUse" orient="auto-start-reverse"><path d="M0,0 L10,5 L0,10 Z" fill="#64748b"/></marker></defs><g><g class="diagram-zone" data-object-id="Zone1" data-kind="zone" aria-label="Zone: Order processing"><rect x="55" y="78" width="390" height="355" rx="4"/><rect class="zone-header" x="55" y="78" width="390" height="30" rx="4" data-zone-header="Zone1"/></g><g class="diagram-zone" data-object-id="Zone2" data-kind="zone" aria-label="Zone: Fulfilment"><rect x="95" y="227" width="305" height="141" rx="4"/><rect class="zone-header" x="95" y="227" width="305" height="30" rx="4" data-zone-header="Zone2"/></g></g><g><g class="diagram-edge" data-object-id="Edge1" data-kind="edge" aria-label="Connection Node1 to Node2: Authorize payment"><path class="edge-line" d="M200,157 L232.7967529296875,157 L232.7967529296875,163 L277.593505859375,163" data-edge-id="Edge1" data-bridge-count="0" marker-end="url(#arrowhead)"/></g><g class="diagram-edge" data-object-id="Edge2" data-kind="edge" aria-label="Connection Node1 to Node4: Store accepted order"><path class="edge-bridge-halo" d="M244.7967529296875,167 C239.4767529296875,167 239.4767529296875,159 244.7967529296875,159" fill="none" stroke="#fff" stroke-width="4.5" pointer-events="none"/><path class="edge-line" d="M200,169 L244.7967529296875,169 L244.7967529296875,167 C239.4767529296875,167 239.4767529296875,159 244.7967529296875,159 L244.7967529296875,128 L458.0062255859375,128 L458.0062255859375,157 L503.60595703125,157" data-edge-id="Edge2" data-bridge-count="1" marker-end="url(#arrowhead)"/></g><g class="diagram-edge" data-object-id="Edge3" data-kind="edge" aria-label="Connection Node2 to Node5: Payment accepted"><path class="edge-line" d="M345,190 L565,348" data-edge-id="Edge3" data-bridge-count="0" marker-end="url(#arrowhead)"/></g><g class="diagram-edge" data-object-id="Edge4" data-kind="edge" aria-label="Connection Node3 to Node4: Load order"><path class="edge-bridge-halo" d="M396.1249157082619,232.34936414355496 C392.7482743784621,226.62042066941524 401.3632269711534,221.54276453437797 404.73986830095316,227.2717080085177" fill="none" stroke="#fff" stroke-width="4.5" pointer-events="none"/><path class="edge-line" d="M305.09912109375,286 L396.1249157082619,232.34936414355496 C392.7482743784621,226.62042066941524 401.3632269711534,221.54276453437797 404.73986830095316,227.2717080085177 L503.60595703125,169" data-edge-id="Edge4" data-bridge-count="1" marker-end="url(#arrowhead)"/></g><g class="diagram-edge" data-object-id="Edge5" data-kind="edge" aria-label="Connection Node5 to Node3: Schedule dispatch"><path class="edge-line" d="M505,383 L405.049560546875,383 L405.049560546875,310 L305.09912109375,310" data-edge-id="Edge5" data-bridge-count="0" marker-end="url(#arrowhead)"/></g><g class="diagram-edge" data-object-id="Edge6" data-kind="edge" aria-label="Connection Node3 to Node3: Retry"><path class="edge-bridge-halo" d="M345.09912109375,267.4239857136532 C338.44912109375,267.4239857136532 338.44912109375,257.4239857136532 345.09912109375,257.4239857136532" fill="none" stroke="#fff" stroke-width="4.5" pointer-events="none"/><path class="edge-line" d="M305.09912109375,298 L345.09912109375,298 L345.09912109375,267.4239857136532 C338.44912109375,267.4239857136532 338.44912109375,257.4239857136532 345.09912109375,257.4239857136532 L345.09912109375,231 L240,231 L240,271" data-edge-id="Edge6" data-bridge-count="1" marker-end="url(#arrowhead)"/></g></g><g><g class="edge-label" data-object-id="Edge1" data-kind="edge" transform="translate(255.19512939453125,208.5)"><line class="edge-label-leader" x1="0" y1="-45.5" x2="0" y2="-10.5" stroke="#94a3b8" stroke-width="0.8" stroke-dasharray="2 2"/><circle class="edge-label-leader" cx="0" cy="-45.5" r="1.7" fill="#64748b"/><rect x="-56.244873046875" y="-10.5" width="112.48974609375" height="21" rx="3"/><text text-anchor="middle"><tspan x="0" y="4">Authorize payment</tspan></text></g><g class="edge-label" data-object-id="Edge2" data-kind="edge" transform="translate(404.703857421875,111.5)"><line class="edge-label-leader" x1="0" y1="16.5" x2="0" y2="10.5" stroke="#94a3b8" stroke-width="0.8" stroke-dasharray="2 2"/><circle class="edge-label-leader" cx="0" cy="16.5" r="1.7" fill="#64748b"/><rect x="-62.652587890625" y="-10.5" width="125.30517578125" height="21" rx="3"/><text text-anchor="middle"><tspan x="0" y="4">Store accepted order</tspan></text></g><g class="edge-label" data-object-id="Edge3" data-kind="edge" transform="translate(455,269)"><rect x="-55.664794921875" y="-10.5" width="111.32958984375" height="21" rx="3"/><text text-anchor="middle"><tspan x="0" y="4">Payment accepted</tspan></text></g><g class="edge-label" data-object-id="Edge4" data-kind="edge" transform="translate(453.979248046875,198.25)"><rect x="-35.399658203125" y="-10.5" width="70.79931640625" height="21" rx="3"/><text text-anchor="middle"><tspan x="0" y="4">Load order</tspan></text></g><g class="edge-label" data-object-id="Edge5" data-kind="edge" transform="translate(430.03717041015625,383)"><rect x="-55.455322265625" y="-10.5" width="110.91064453125" height="21" rx="3"/><text text-anchor="middle"><tspan x="0" y="4">Schedule dispatch</tspan></text></g><g class="edge-label" data-object-id="Edge6" data-kind="edge" transform="translate(338.5304260253906,231)"><rect x="-20.921875" y="-10.5" width="41.84375" height="21" rx="3"/><text text-anchor="middle"><tspan x="0" y="4">Retry</tspan></text></g></g><g class="zone-titles"><g class="zone-title" data-object-id="Zone1" data-kind="zone" data-zone-header="Zone1"><rect class="zone-label-backing" x="195.0361328125" y="83" width="109.927734375" height="20" rx="3"/><text class="zone-label" x="250" y="98" text-anchor="middle">Order processing</text></g><g class="zone-title" data-object-id="Zone2" data-kind="zone" data-zone-header="Zone2"><rect class="zone-label-backing" x="213.5478515625" y="232" width="67.904296875" height="20" rx="3"/><text class="zone-label" x="247.5" y="247" text-anchor="middle">Fulfilment</text></g></g><g><g class="diagram-node" data-object-id="Node1" data-kind="node" transform="translate(80,136)" aria-label="Order API"><rect class="node-shape" width="120" height="54" rx="14"/><text text-anchor="middle"><tspan x="60" y="32">Order API</tspan></text></g><g class="diagram-node" data-object-id="Node2" data-kind="node" transform="translate(277.593505859375,136)" aria-label="Payment adapter"><rect class="node-shape" width="134.81298828125" height="54" rx="3"/><text text-anchor="middle"><tspan x="67.406494140625" y="32">Payment adapter</tspan></text></g><g class="diagram-node" data-object-id="Node3" data-kind="node" transform="translate(174.90087890625,271)" aria-label="Dispatch worker"><rect class="node-shape" width="130.1982421875" height="54" rx="14"/><text text-anchor="middle"><tspan x="65.09912109375" y="32">Dispatch worker</tspan></text></g><g class="diagram-node" data-object-id="Node4" data-kind="node" transform="translate(503.60595703125,128)" aria-label="Orders database"><path class="node-shape" d="M0,10 A66.39404296875,10 0 0 1 132.7880859375,10 L132.7880859375,60 A66.39404296875,10 0 0 1 0,60 Z"/><ellipse class="node-shape" cx="66.39404296875" cy="10" rx="66.39404296875" ry="10"/><text text-anchor="middle"><tspan x="66.39404296875" y="40">Orders database</tspan></text></g><g class="diagram-node" data-object-id="Node5" data-kind="node" transform="translate(505,348)" aria-label="Event queue"><path class="node-shape" d="M0,10 A60,10 0 0 1 120,10 L120,60 A60,10 0 0 1 0,60 Z"/><ellipse class="node-shape" cx="60" cy="10" rx="60" ry="10"/><text text-anchor="middle"><tspan x="60" y="40">Event queue</tspan></text></g></g></g></svg>