<svg xmlns="http://www.w3.org/2000/svg" width="1268" height="571" viewBox="-24 -4 1268 571" role="img" aria-label="Diagram"><style>.diagram-zone&gt;rect{fill:#eef2f6;fill-opacity:.8;stroke:var(--zone-border,#94a3b8);stroke-width:1;stroke-dasharray:3 3}.diagram-zone&gt;.zone-header{fill:#e2e8f0;fill-opacity:.7;stroke:none}.zone-title&gt;.zone-label-backing{fill:#e2e8f0;fill-opacity:.72;stroke:none}.zone-label{fill:#475569;font:12px system-ui,sans-serif}.diagram-node&gt;.node-shape{fill:#fff;stroke:var(--diagram-ink,#64748b);stroke-width:1.3}.diagram-node text{fill:#1e293b;font:13px system-ui,sans-serif}.edge-line{fill:none;stroke:var(--diagram-ink,#64748b);stroke-width:1.5;stroke-linejoin:round;stroke-linecap:round}.edge-label rect{fill:var(--label-fill,#fff);stroke:var(--label-border,#e2e8f0);stroke-width:.7}.edge-label text{fill:var(--label-text,#475569);font:11px system-ui,sans-serif}.node-container-title text{font-family:system-ui,sans-serif}</style><rect x="-24" y="-4" width="1268" height="571" fill="#fff"/><g id="diagram-scene" data-theme="clean" style="--diagram-ink:#64748b;--zone-border:#94a3b8;--label-border:#e2e8f0;--label-fill:#ffffff;--label-text:#475569"><defs><marker id="arrowhead" viewBox="0 0 10 10" refX="10" refY="5" markerWidth="10" markerHeight="10" markerUnits="userSpaceOnUse" orient="auto-start-reverse"><path d="M0,0 L10,5 L0,10 Z" fill="#64748b"/></marker><marker id="arrowhead-Whisper" viewBox="0 0 10 10" refX="10" refY="5" markerWidth="10" markerHeight="10" markerUnits="userSpaceOnUse" orient="auto-start-reverse"><path d="M0,0 L10,5 L0,10 Z" fill="#62677f"/></marker><marker id="arrowhead-Remember" viewBox="0 0 10 10" refX="10" refY="5" markerWidth="10" markerHeight="10" markerUnits="userSpaceOnUse" orient="auto-start-reverse"><path d="M0,0 L10,5 L0,10 Z" fill="#62677f"/></marker><marker id="arrowhead-Motifs" viewBox="0 0 10 10" refX="10" refY="5" markerWidth="10" markerHeight="10" markerUnits="userSpaceOnUse" orient="auto-start-reverse"><path d="M0,0 L10,5 L0,10 Z" fill="#62677f"/></marker><marker id="arrowhead-Guidance" viewBox="0 0 10 10" refX="10" refY="5" markerWidth="10" markerHeight="10" markerUnits="userSpaceOnUse" orient="auto-start-reverse"><path d="M0,0 L10,5 L0,10 Z" fill="#62677f"/></marker><marker id="arrowhead-Draft" viewBox="0 0 10 10" refX="10" refY="5" markerWidth="10" markerHeight="10" markerUnits="userSpaceOnUse" orient="auto-start-reverse"><path d="M0,0 L10,5 L0,10 Z" fill="#62677f"/></marker><marker id="arrowhead-Approve" viewBox="0 0 10 10" refX="10" refY="5" markerWidth="10" markerHeight="10" markerUnits="userSpaceOnUse" orient="auto-start-reverse"><path d="M0,0 L10,5 L0,10 Z" fill="#62677f"/></marker><marker id="arrowhead-Reimagine" viewBox="0 0 10 10" refX="10" refY="5" markerWidth="10" markerHeight="10" markerUnits="userSpaceOnUse" orient="auto-start-reverse"><path d="M0,0 L10,5 L0,10 Z" fill="#9195ae"/></marker><marker id="arrowhead-Bind" viewBox="0 0 10 10" refX="10" refY="5" markerWidth="10" markerHeight="10" markerUnits="userSpaceOnUse" orient="auto-start-reverse"><path d="M0,0 L10,5 L0,10 Z" fill="#62677f"/></marker><marker id="arrowhead-Borrow" viewBox="0 0 10 10" refX="10" refY="5" markerWidth="10" markerHeight="10" markerUnits="userSpaceOnUse" orient="auto-start-reverse"><path d="M0,0 L10,5 L0,10 Z" fill="#62677f"/></marker><marker id="arrowhead-Inspiration" viewBox="0 0 10 10" refX="10" refY="5" markerWidth="10" markerHeight="10" markerUnits="userSpaceOnUse" orient="auto-start-reverse"><path d="M0,0 L10,5 L0,10 Z" fill="#9195ae"/></marker></defs><g><g class="diagram-zone" data-object-id="Intake" data-kind="zone" aria-label="Zone: 01 · Dream intake"><rect x="0" y="20" width="320" height="465" rx="4" style="fill:#fff5df;stroke:#a56b22;stroke-width:1;stroke-dasharray:3 3"/><rect class="zone-header" x="0" y="20" width="320" height="32" rx="4" data-zone-header="Intake" style="fill:#e8dfcb"/></g><g class="diagram-zone" data-object-id="Atelier" data-kind="zone" aria-label="Zone: 02 · Story atelier"><rect x="400" y="20" width="428" height="523" rx="4" style="fill:#f1ebff;stroke:#7952ae;stroke-width:1;stroke-dasharray:3 3"/><rect class="zone-header" x="400" y="20" width="428" height="32" rx="4" data-zone-header="Atelier" style="fill:#dbd6e8"/></g><g class="diagram-zone" data-object-id="Circulation" data-kind="zone" aria-label="Zone: 03 · Dawn circulation"><rect x="900" y="20" width="320" height="493" rx="4" style="fill:#e5f5f0;stroke:#29816f;stroke-width:1;stroke-dasharray:3 3"/><rect class="zone-header" x="900" y="20" width="320" height="32" rx="4" data-zone-header="Circulation" style="fill:#d0dfda"/></g></g><g><g class="diagram-edge" data-object-id="Whisper" data-kind="edge" aria-label="Connection Dreamer to Catcher: whisper"><path class="edge-line" d="M160,149 L160,248" data-edge-id="Whisper" data-bridge-count="0" marker-end="url(#arrowhead-Whisper)" style="stroke:#62677f;stroke-width:1.5"/></g><g class="diagram-edge" data-object-id="Remember" data-kind="edge" aria-label="Connection Catcher to Vault: preserve"><path class="edge-line" d="M160,304 L160,395" data-edge-id="Remember" data-bridge-count="0" marker-end="url(#arrowhead-Remember)" style="stroke:#62677f;stroke-width:1.5"/></g><g class="diagram-edge" data-object-id="Motifs" data-kind="edge" aria-label="Connection Vault to Weaver: motifs"><path class="edge-line" d="M220,430 L378,430 L378,272.57142857142856 L586,272.57142857142856" data-edge-id="Motifs" data-bridge-count="0" marker-end="url(#arrowhead-Motifs)" style="stroke:#62677f;stroke-width:1.5"/></g><g class="diagram-edge" data-object-id="Guidance" data-kind="edge" aria-label="Connection Librarian to Weaver: set the tone"><path class="edge-line" d="M614,149 L614,248" data-edge-id="Guidance" data-bridge-count="0" marker-end="url(#arrowhead-Guidance)" style="stroke:#62677f;stroke-width:1.5"/></g><g class="diagram-edge" data-object-id="Draft" data-kind="edge" aria-label="Connection Weaver to Spark: draft"><path class="edge-line" d="M614,304 L614,395" data-edge-id="Draft" data-bridge-count="0" marker-end="url(#arrowhead-Draft)" style="stroke:#62677f;stroke-width:1.5"/></g><g class="diagram-edge" data-object-id="Approve" data-kind="edge" aria-label="Connection Spark to Manuscript: yes"><path class="edge-line" d="M734,459 L856.5000000000001,459 L856.5000000000001,124 L1000,124" data-edge-id="Approve" data-bridge-count="0" marker-end="url(#arrowhead-Approve)" style="stroke:#62677f;stroke-width:1.5"/></g><g class="diagram-edge" data-object-id="Reimagine" data-kind="edge" aria-label="Connection Spark to Weaver: not yet"><path class="edge-line" d="M494,459 L486,459 L486,279.42857142857144 L586,279.42857142857144" data-edge-id="Reimagine" data-bridge-count="0" marker-end="url(#arrowhead-Reimagine)" stroke-dasharray="6 5" style="stroke:#9195ae;stroke-width:1.5"/></g><g class="diagram-edge" data-object-id="Bind" data-kind="edge" aria-label="Connection Manuscript to Shelf: bind"><path class="edge-line" d="M1060,153 L1060,240" data-edge-id="Bind" data-bridge-count="0" marker-end="url(#arrowhead-Bind)" style="stroke:#62677f;stroke-width:1.5"/></g><g class="diagram-edge" data-object-id="Borrow" data-kind="edge" aria-label="Connection Shelf to Readers: borrow"><path class="edge-line" d="M1060,320 L1060,403" data-edge-id="Borrow" data-bridge-count="0" marker-end="url(#arrowhead-Borrow)" style="stroke:#62677f;stroke-width:1.5"/></g><g class="diagram-edge" data-object-id="Inspiration" data-kind="edge" aria-label="Connection Readers to Dreamer: new dreams"><path class="edge-bridge-halo" d="M1065,357.5 C1065,364.15 1055,364.15 1055,357.5" fill="none" stroke="#fff" stroke-width="4.5" pointer-events="none"/><path class="edge-bridge-halo" d="M861.5000000000001,357.5 C861.5000000000001,364.15 851.5000000000001,364.15 851.5000000000001,357.5" fill="none" stroke="#fff" stroke-width="4.5" pointer-events="none"/><path class="edge-bridge-halo" d="M619,357.5 C619,364.15 609,364.15 609,357.5" fill="none" stroke="#fff" stroke-width="4.5" pointer-events="none"/><path class="edge-bridge-halo" d="M491,357.5 C491,364.15 481,364.15 481,357.5" fill="none" stroke="#fff" stroke-width="4.5" pointer-events="none"/><path class="edge-bridge-halo" d="M383,357.5 C383,364.15 373,364.15 373,357.5" fill="none" stroke="#fff" stroke-width="4.5" pointer-events="none"/><path class="edge-line" d="M1088,431 L1096,431 L1096,357.5 L1065,357.5 C1065,364.15 1055,364.15 1055,357.5 L861.5000000000001,357.5 C861.5000000000001,364.15 851.5000000000001,364.15 851.5000000000001,357.5 L619,357.5 C619,364.15 609,364.15 609,357.5 L491,357.5 C491,364.15 481,364.15 481,357.5 L383,357.5 C383,364.15 373,364.15 373,357.5 L366,357.5 L366,85 L160,85 L160,93" data-edge-id="Inspiration" data-bridge-count="5" marker-end="url(#arrowhead-Inspiration)" stroke-dasharray="6 5" style="stroke:#9195ae;stroke-width:1"/></g></g><g><g class="edge-label" data-object-id="Whisper" data-kind="edge" transform="translate(160,210.875)"><rect x="-30.756103515625" y="-12" width="61.51220703125" height="24" rx="3"/><text text-anchor="middle" style="font-size:13px;fill:#4c5068"><tspan x="0" y="4.55"><tspan font-weight="400" font-style="normal">whisper</tspan></tspan></text></g><g class="edge-label" data-object-id="Remember" data-kind="edge" transform="translate(160,360.875)"><rect x="-33.48876953125" y="-12" width="66.9775390625" height="24" rx="3"/><text text-anchor="middle" style="font-size:13px;fill:#4c5068"><tspan x="0" y="4.55"><tspan font-weight="400" font-style="normal">preserve</tspan></tspan></text></g><g class="edge-label" data-object-id="Motifs" data-kind="edge" transform="translate(430,272.57142857142856)"><rect x="-25.830322265625" y="-12" width="51.66064453125" height="24" rx="3"/><text text-anchor="middle" style="font-size:13px;fill:#4c5068"><tspan x="0" y="4.55"><tspan font-weight="400" font-style="normal">motifs</tspan></tspan></text></g><g class="edge-label" data-object-id="Guidance" data-kind="edge" transform="translate(614,210.875)"><rect x="-43.235595703125" y="-12" width="86.47119140625" height="24" rx="3"/><text text-anchor="middle" style="font-size:13px;fill:#4c5068"><tspan x="0" y="4.55"><tspan font-weight="400" font-style="normal">set</tspan><tspan font-weight="400" font-style="normal"> </tspan><tspan font-weight="400" font-style="normal">the</tspan><tspan font-weight="400" font-style="normal"> </tspan><tspan font-weight="400" font-style="normal">tone</tspan></tspan></text></g><g class="edge-label" data-object-id="Draft" data-kind="edge" transform="translate(535.267822265625,372.25)"><line class="edge-label-leader" x1="78.732177734375" y1="0" x2="21.577392578125" y2="0" stroke="#64748b" stroke-width="1.4" vector-effect="non-scaling-stroke" stroke-dasharray="2 2"/><circle class="edge-label-leader" cx="78.732177734375" cy="0" r="2" fill="#64748b"/><rect x="-21.577392578125" y="-12" width="43.15478515625" height="24" rx="3"/><text text-anchor="middle" style="font-size:13px;fill:#4c5068"><tspan x="0" y="4.55"><tspan font-weight="400" font-style="normal">draft</tspan></tspan></text></g><g class="edge-label" data-object-id="Approve" data-kind="edge" transform="translate(856.5000000000001,291.5)"><rect x="-17.40380859375" y="-12" width="34.8076171875" height="24" rx="3"/><text text-anchor="middle" style="font-size:13px;fill:#4c5068"><tspan x="0" y="4.55"><tspan font-weight="400" font-style="normal">yes</tspan></tspan></text></g><g class="edge-label" data-object-id="Reimagine" data-kind="edge" transform="translate(521.19482421875,324.32142857142856)"><line class="edge-label-leader" x1="-35.19482421875" y1="0" x2="-28.032958984375" y2="0" stroke="#64748b" stroke-width="1.4" vector-effect="non-scaling-stroke" stroke-dasharray="2 2"/><circle class="edge-label-leader" cx="-35.19482421875" cy="0" r="2" fill="#64748b"/><rect x="-28.032958984375" y="-12" width="56.06591796875" height="24" rx="3"/><text text-anchor="middle" style="font-size:13px;fill:#4c5068"><tspan x="0" y="4.55"><tspan font-weight="400" font-style="normal">not</tspan><tspan font-weight="400" font-style="normal"> </tspan><tspan font-weight="400" font-style="normal">yet</tspan></tspan></text></g><g class="edge-label" data-object-id="Bind" data-kind="edge" transform="translate(1060,196.5)"><rect x="-20.231689453125" y="-12" width="40.46337890625" height="24" rx="3"/><text text-anchor="middle" style="font-size:13px;fill:#4c5068"><tspan x="0" y="4.55"><tspan font-weight="400" font-style="normal">bind</tspan></tspan></text></g><g class="edge-label" data-object-id="Borrow" data-kind="edge" transform="translate(1060,340.75)"><rect x="-28.27099609375" y="-12" width="56.5419921875" height="24" rx="3"/><text text-anchor="middle" style="font-size:13px;fill:#4c5068"><tspan x="0" y="4.55"><tspan font-weight="400" font-style="normal">borrow</tspan></tspan></text></g><g class="edge-label" data-object-id="Inspiration" data-kind="edge" transform="translate(731,357.5)"><rect x="-43.689453125" y="-12" width="87.37890625" height="24" rx="3"/><text text-anchor="middle" style="font-size:13px;fill:#4c5068"><tspan x="0" y="4.55"><tspan font-weight="400" font-style="italic">new</tspan><tspan font-weight="400" font-style="italic"> </tspan><tspan font-weight="400" font-style="italic">dreams</tspan></tspan></text></g></g><g class="zone-titles"><g class="zone-title" data-object-id="Intake" data-kind="zone" data-zone-header="Intake"><rect class="zone-label-backing" x="98.105712890625" y="25" width="123.78857421875" height="22" rx="3" style="fill:#e8dfcb"/><text class="zone-label" text-anchor="middle" style="fill:#354154;font-size:13px"><tspan x="160" y="40.55"><tspan font-weight="700" font-style="normal">01</tspan><tspan font-weight="700" font-style="normal"> </tspan><tspan font-weight="700" font-style="normal">·</tspan><tspan font-weight="700" font-style="normal"> </tspan><tspan font-weight="700" font-style="normal">Dream</tspan><tspan font-weight="700" font-style="normal"> </tspan><tspan font-weight="700" font-style="normal">intake</tspan></tspan></text></g><g class="zone-title" data-object-id="Atelier" data-kind="zone" data-zone-header="Atelier"><rect class="zone-label-backing" x="554.003662109375" y="25" width="119.99267578125" height="22" rx="3" style="fill:#dbd6e8"/><text class="zone-label" text-anchor="middle" style="fill:#354154;font-size:13px"><tspan x="614" y="40.55"><tspan font-weight="700" font-style="normal">02</tspan><tspan font-weight="700" font-style="normal"> </tspan><tspan font-weight="700" font-style="normal">·</tspan><tspan font-weight="700" font-style="normal"> </tspan><tspan font-weight="700" font-style="normal">Story</tspan><tspan font-weight="700" font-style="normal"> </tspan><tspan font-weight="700" font-style="normal">atelier</tspan></tspan></text></g><g class="zone-title" data-object-id="Circulation" data-kind="zone" data-zone-header="Circulation"><rect class="zone-label-backing" x="985.892822265625" y="25" width="148.21435546875" height="22" rx="3" style="fill:#d0dfda"/><text class="zone-label" text-anchor="middle" style="fill:#354154;font-size:13px"><tspan x="1060" y="40.55"><tspan font-weight="700" font-style="normal">03</tspan><tspan font-weight="700" font-style="normal"> </tspan><tspan font-weight="700" font-style="normal">·</tspan><tspan font-weight="700" font-style="normal"> </tspan><tspan font-weight="700" font-style="normal">Dawn</tspan><tspan font-weight="700" font-style="normal"> </tspan><tspan font-weight="700" font-style="normal">circulation</tspan></tspan></text></g></g><g><g class="diagram-node" data-object-id="Dreamer" data-kind="node" transform="translate(100,85)" aria-label="Dreamer"><rect class="node-hit" width="120" height="98" fill="transparent" stroke="none"/><g class="actor-icon" transform="translate(32,8) scale(2.3333333333333335)" style="color:#354154"><g fill="none" stroke="currentColor" stroke-width="1.7" stroke-linecap="round" stroke-linejoin="round"><circle cx="12" cy="5" r="3"/><path d="M12 8v8m-6-5h12m-6 5-5 6m5-6 5 6"/></g></g><text text-anchor="middle" style="fill:#354154;font-size:13px"><tspan x="60" y="85.55"><tspan font-weight="700" font-style="normal">Dreamer</tspan></tspan></text></g><g class="diagram-node" data-object-id="Catcher" data-kind="node" transform="translate(98.0762939453125,240)" aria-label="Dreamcatcher"><rect class="node-shape" x="33.9237060546875" y="8" width="56" height="56" rx="10" style="fill:#fff5df;stroke:#a56b22;stroke-width:1.5;stroke-dasharray:none"/><g class="actor-icon" transform="translate(33.9237060546875,8) scale(2.3333333333333335)" style="color:#354154"><g fill="none" stroke="currentColor" stroke-width="1.7" stroke-linecap="round" stroke-linejoin="round"><rect x="3" y="6" width="18" height="15" rx="4"/><path d="M12 6V2m-3 0h6M3 11H1m20 0h2M8 17h8"/><circle cx="8" cy="11" r="1"/><circle cx="16" cy="11" r="1"/></g></g><text text-anchor="middle" style="fill:#354154;font-size:13px"><tspan x="61.9237060546875" y="85.55"><tspan font-weight="700" font-style="normal">Dreamcatcher</tspan></tspan></text></g><g class="diagram-node" data-object-id="Vault" data-kind="node" transform="translate(100,395)" aria-label="Dream vault"><path class="node-shape" d="M0,10 A60,10 0 0 1 120,10 V60 A60,10 0 0 1 0,60 Z" style="fill:#fff5df;stroke:#a56b22;stroke-width:1.5;stroke-dasharray:none"/><ellipse class="node-shape" cx="60" cy="10" rx="60" ry="10" style="fill:#fff5df;stroke:#a56b22;stroke-width:1.5;stroke-dasharray:none"/><text text-anchor="middle" style="fill:#354154;font-size:13px"><tspan x="60" y="39.55"><tspan font-weight="400" font-style="normal">Dream</tspan><tspan font-weight="400" font-style="normal"> </tspan><tspan font-weight="400" font-style="normal">vault</tspan></tspan></text></g><g class="diagram-node" data-object-id="Librarian" data-kind="node" transform="translate(554,85)" aria-label="Night librarian"><rect class="node-hit" width="120" height="98" fill="transparent" stroke="none"/><g class="actor-icon" transform="translate(32,8) scale(2.3333333333333335)" style="color:#354154"><g fill="none" stroke="currentColor" stroke-width="1.7" stroke-linecap="round" stroke-linejoin="round"><circle cx="12" cy="5" r="3"/><path d="M12 8v8m-6-5h12m-6 5-5 6m5-6 5 6"/></g></g><text text-anchor="middle" style="fill:#354154;font-size:13px"><tspan x="60" y="85.55"><tspan font-weight="400" font-style="normal">Night</tspan><tspan font-weight="400" font-style="normal"> </tspan><tspan font-weight="400" font-style="normal">librarian</tspan></tspan></text></g><g class="diagram-node" data-object-id="Weaver" data-kind="node" transform="translate(554,240)" aria-label="Story weaver"><rect class="node-shape" x="32" y="8" width="56" height="56" rx="10" style="fill:#f1ebff;stroke:#7952ae;stroke-width:1.5;stroke-dasharray:none"/><g class="actor-icon" transform="translate(32,8) scale(2.3333333333333335)" style="color:#354154"><g fill="none" stroke="currentColor" stroke-width="1.7" stroke-linecap="round" stroke-linejoin="round"><rect x="3" y="6" width="18" height="15" rx="4"/><path d="M12 6V2m-3 0h6M3 11H1m20 0h2M8 17h8"/><circle cx="8" cy="11" r="1"/><circle cx="16" cy="11" r="1"/></g></g><text text-anchor="middle" style="fill:#354154;font-size:13px"><tspan x="60" y="85.55"><tspan font-weight="700" font-style="normal">Story</tspan><tspan font-weight="700" font-style="normal"> </tspan><tspan font-weight="700" font-style="normal">weaver</tspan></tspan></text></g><g class="diagram-node" data-object-id="Spark" data-kind="node" transform="translate(494,395)" aria-label="A spark of&#10;wonder?"><polygon class="node-shape" points="120,0 240,64 120,128 0,64" style="fill:#f1ebff;stroke:#7952ae;stroke-width:1.5;stroke-dasharray:none"/><text text-anchor="middle" style="fill:#354154;font-size:13px"><tspan x="120" y="59.55"><tspan font-weight="400" font-style="normal">A</tspan><tspan font-weight="400" font-style="normal"> </tspan><tspan font-weight="400" font-style="normal">spark</tspan><tspan font-weight="400" font-style="normal"> </tspan><tspan font-weight="400" font-style="normal">of</tspan></tspan><tspan x="120" y="77.55"><tspan font-weight="400" font-style="normal">wonder?</tspan></tspan></text></g><g class="diagram-node" data-object-id="Manuscript" data-kind="node" transform="translate(1000,85)" aria-label="Midnight&#10;manuscript"><path class="node-shape" d="M0,0 H120 V68 Q90,58 60,68 Q30,78 0,68 Z" style="fill:#e5f5f0;stroke:#29816f;stroke-width:1.5;stroke-dasharray:none"/><text text-anchor="middle" style="fill:#354154;font-size:13px"><tspan x="60" y="34.55"><tspan font-weight="400" font-style="italic">Midnight</tspan></tspan><tspan x="60" y="52.55"><tspan font-weight="400" font-style="normal">manuscript</tspan></tspan></text></g><g class="diagram-node" data-object-id="Shelf" data-kind="node" transform="translate(979,240)" aria-label="Constellation&#10;shelves"><path class="node-shape" d="M32.4,16 C32.4,4 56.699999999999996,0 81,0 C105.3,0 129.6,4 129.6,16 C162,16 162,28 162,40 C162,52 162,64 129.6,64 C129.6,76 105.3,80 81,80 C56.699999999999996,80 32.4,76 32.4,64 C0,64 0,52 0,40 C0,28 0,16 32.4,16 Z" style="fill:#e5f5f0;stroke:#29816f;stroke-width:1.5;stroke-dasharray:none"/><text text-anchor="middle" style="fill:#354154;font-size:13px"><tspan x="81" y="35.55"><tspan font-weight="400" font-style="normal">Constellation</tspan></tspan><tspan x="81" y="53.55"><tspan font-weight="400" font-style="normal">shelves</tspan></tspan></text></g><g class="diagram-node" data-object-id="Readers" data-kind="node" transform="translate(1000,395)" aria-label="Dawn reader"><rect class="node-hit" width="120" height="98" fill="transparent" stroke="none"/><g class="actor-icon" transform="translate(32,8) scale(2.3333333333333335)" style="color:#354154"><g fill="none" stroke="currentColor" stroke-width="1.7" stroke-linecap="round" stroke-linejoin="round"><circle cx="12" cy="5" r="3"/><path d="M12 8v8m-6-5h12m-6 5-5 6m5-6 5 6"/></g></g><text text-anchor="middle" style="fill:#354154;font-size:13px"><tspan x="60" y="85.55"><tspan font-weight="400" font-style="normal">Dawn</tspan><tspan font-weight="400" font-style="normal"> </tspan><tspan font-weight="400" font-style="normal">reader</tspan></tspan></text></g></g><g class="manual-labels"/></g></svg>